# xmcd
#
# Track frame offsets:
#	150
#	23092
#	41591
#	60895
#	77304
#	89978
#	109781
#	125065
#	137954
#	157319
#	175230
#
# Disc length: 2406 seconds
#
# Revision: 0
# Processed by: cddbd v1.5.2PL0 Copyright (c) Steve Scherf et al.
# Submitted via: EZCDAudioConverter 7.0.6.1
#
DISCID=9309640b
DTITLE=Jim James - Tribute To 2
DYEAR=1900
DGENRE=
TTITLE0=I Just Wasn't Made For These Times
TTITLE1=Baby Don't Go
TTITLE2=Wild Honey
TTITLE3=Midnight, The Stars And You
TTITLE4=Crying In The Chapel
TTITLE5=Funny How Time Slips Away
TTITLE6=Love Is The Sweetest Thing
TTITLE7=I'll Be Your Baby Tonight
TTITLE8=Lucky Man
TTITLE9=The World Is Falling Down
TTITLE10=Blue Skies
EXTD=
EXTT0=
EXTT1=
EXTT2=
EXTT3=
EXTT4=
EXTT5=
EXTT6=
EXTT7=
EXTT8=
EXTT9=
EXTT10=
PLAYORDER=
